# xmcd
#
# Track frame offsets: 
#        150
#        12000
#        23025
#        35040
#        49923
#        62538
#        82983
#        97308
#        113058
#        123513
#        141378
#        155778
#        168378
#        181323
#        191163
#        209193
#        224043
#        232548
#        246348
#        259548
#        277818
#        288920
#        308795
#        324695
#        338720
#
# Disc length: 4716 seconds
#
# Revision: 0
# Processed by: cddbd v1.5.2PL0 Copyright (c) Steve Scherf et al.
# Submitted via: ExactAudioCopyFreeDBPlugin 1.0
#
DISCID=76126a19
DTITLE=Joe Dassin - The Best
DYEAR=2013
DGENRE=Chanson
TTITLE0=Taka Takata (La femme du toréro)
TTITLE1=L'Amérique
TTITLE2=Les Champs-Élysées
TTITLE3=Salut
TTITLE4=La mal-aimée du courrier du cœur
TTITLE5=L'été indien
TTITLE6=L'équipe à Jojo
TTITLE7=Et si tu n'existais pas
TTITLE8=Je change un peu de vent
TTITLE9=Il était une fois nous deux
TTITLE10=Le costume blanc
TTITLE11=La demoiselle de déshonneur
TTITLE12=À toi
TTITLE13=La fleur aux dents
TTITLE14=Le café des Trois Colombes
TTITLE15=Si tu t'appelles Mélancolie
TTITLE16=Il faut naître à Monaco
TTITLE17=Ça va pas changer le monde
TTITLE18=Ma musique
TTITLE19=Salut les amoureux
TTITLE20=Le chemin de papa
TTITLE21=Le marché aux puces
TTITLE22=Le dernier slow
TTITLE23=Côté banjo, côté violon
TTITLE24=Mon village au bout du monde
EXTD=
EXTT0=
EXTT1=
EXTT2=
EXTT3=
EXTT4=
EXTT5=
EXTT6=
EXTT7=
EXTT8=
EXTT9=
EXTT10=
EXTT11=
EXTT12=
EXTT13=
EXTT14=
EXTT15=
EXTT16=
EXTT17=
EXTT18=
EXTT19=
EXTT20=
EXTT21=
EXTT22=
EXTT23=
EXTT24=
PLAYORDER=
